<svg xmlns="http://www.w3.org/2000/svg" width="48" height="46" viewBox="0 0 48 46" fill="none">
  <path fill-rule="evenodd" clip-rule="evenodd" d="M11.7561 0.816528C7.65379 3.27199 4.3625 6.94967 2.29563 11.3877C0.551891 15.1318 -0.00633916 17.6551 5.41826e-05 21.7631C0.00663019 25.9058 0.598835 28.5384 2.36906 32.2956C5.16057 38.22 10.0628 42.6433 16.146 44.7265C19.1185 45.7445 20.6564 45.9968 23.9093 45.9999C26.3057 46.0023 27.1736 45.9261 28.7292 45.577C33.4889 44.5089 37.0502 42.6176 40.4407 39.3573C44.2864 35.6595 46.569 31.4619 47.6609 26.0789C48.3407 22.7291 47.9698 17.5335 46.8042 14.0729C45.3422 9.73204 42.3839 5.43966 39.0159 2.77245C37.3934 1.4876 35.0288 0.00532627 34.5964 0.00202049C34.4463 0.000918564 31.9991 2.37612 29.1584 5.28007L23.9935 10.5601L18.8179 5.28007C15.9712 2.37612 13.5247 0 13.3813 0C13.2377 0 12.5065 0.367493 11.7561 0.816528ZM20.2289 14.1873C18.312 16.1317 16.5274 18.1012 16.2631 18.5638C14.4302 21.771 14.5155 25.4676 16.4883 28.3375C18.2903 30.959 20.7912 32.316 23.818 32.3147C26.231 32.3138 27.8202 31.797 29.572 30.4437C33.2241 27.6218 34.1094 22.1015 31.5178 18.314C30.7579 17.2038 24.3066 10.652 23.9733 10.652C23.8308 10.652 22.1459 12.2428 20.2289 14.1873Z" fill="#2CDF81"/>
  <path fill-rule="evenodd" clip-rule="evenodd" d="M20.0444 14.2965C15.8554 18.5484 15.3565 19.267 14.9524 21.6333C14.4144 24.783 15.2687 27.5504 17.4549 29.7404C19.3143 31.6032 21.4269 32.5068 23.922 32.5068C26.4171 32.5068 28.5297 31.6032 30.3891 29.7404C33.2012 26.9234 33.8438 22.9354 32.0846 19.2184C31.6437 18.287 31.0074 17.5564 27.7974 14.2965C25.7242 12.1909 23.9802 10.4683 23.922 10.4683C23.8638 10.4683 22.1188 12.1909 20.0444 14.2965Z" fill="#05314C"/>
</svg>